<svg height="32" viewBox="0 0 32 32" width="32" xmlns="http://www.w3.org/2000/svg" xmlns:xlink="http://www.w3.org/1999/xlink"><linearGradient id="a"><stop offset="0" stop-color="#404245"/><stop offset="1" stop-color="#585d60"/></linearGradient><linearGradient id="b" gradientUnits="userSpaceOnUse" x1="13.00001" x2="28.99998" y1="9.00003" y2="24.99997"><stop offset="0" stop-color="#020303"/><stop offset="1" stop-color="#424649" stop-opacity="0"/></linearGradient><linearGradient id="c" gradientTransform="translate(-.000012 3)" gradientUnits="userSpaceOnUse" x2="0" xlink:href="#d" y1="525.79797" y2="527.79797"/><linearGradient id="d"><stop offset="0" stop-color="#2a2c2f"/><stop offset="1" stop-color="#424649"/></linearGradient><linearGradient id="e" gradientUnits="userSpaceOnUse" x1="15" x2="14" xlink:href="#a" y1="28" y2="8"/><linearGradient id="f" gradientTransform="translate(384.57143 518.798)" gradientUnits="userSpaceOnUse" x2="0" y1="25" y2="6.00003"><stop offset="0" stop-color="#989a9b"/><stop offset="1" stop-color="#f6f6f7"/></linearGradient><linearGradient id="g" gradientTransform="translate(0 2)" gradientUnits="userSpaceOnUse" x2="0" xlink:href="#a" y1="26" y2="6"/><linearGradient id="h" gradientTransform="matrix(.66666726 0 0 .63518419 128.19014 198.51873)" gradientUnits="userSpaceOnUse" x2="0" y1="543.79797" y2="502.65509"><stop offset="0" stop-color="#c6cdd1"/><stop offset="1" stop-color="#e0e5e7"/></linearGradient><linearGradient id="i" gradientUnits="userSpaceOnUse" x1="391.571433" x2="406.571463" y1="525.797999" y2="540.797999"><stop offset="0"/><stop offset="1" stop-opacity="0"/></linearGradient><linearGradient id="j" gradientUnits="userSpaceOnUse" x2="0" xlink:href="#d" y1="543.79797" y2="523.79797"/><g transform="translate(-384.57143 -515.798)"><path d="m384.57144 517.79797h32v28h-32z" fill="url(#h)"/><path d="m385.57142 543.79803 30-20 1.00001 1-.00001 20.99997-29 .00003z" fill="url(#i)" fill-rule="evenodd" opacity=".2"/><path d="m384.57141 517.79797h32.00001v4h-32.00001z" fill="#566069"/><path d="m384.57141 521.79797h31.999968v1h-31.999968z" fill="#3daee9"/><path d="m385.57141 523.79797h30v20.00003h-30z" fill="url(#j)"/><rect fill="#eff0f1" height="2" rx="1" width="2" x="413.57141" y="518.79797"/><path d="m17 9-4.443359 18.755859 2.24414 2.244141h15.199219v-8z" fill="url(#b)" fill-rule="evenodd" opacity=".2" transform="translate(384.57143 515.798)"/><g stroke-linecap="square" stroke-width=".1"><path d="m8 8v3h-7v1h7v12h-7v1h7v3h1v-3h14v3h1v-3h7v-1h-7v-12h7v-1h-7v-3h-1v3h-14v-3zm1 4h14v12h-14z" fill="url(#e)" transform="translate(384.57143 515.798)"/><path d="m10.783203 8c-1.802977 4.020931-5.4549422 6.90882-9.783203 7.736328v1.027344c4.890172-.864251 8.9979265-4.170941 10.886719-8.763672zm20.216797 11.236328c-4.887967.866092-8.993153 4.172496-10.880859 8.763672h1.103515c1.801828-4.01944 5.451281-6.907072 9.777344-7.736328z" fill="url(#g)" transform="translate(384.57143 515.798)"/><path d="m399.57143 524.798v2.17383a3 3 0 0 0 -2 2.82617 3 3 0 0 0 1.52539 2.60937l-1.44336 5.39063h-1.08203v1h.81445l-.80859 3.01562.57227 1.71875 1.26953-4.73437h4.30273l1.26758 4.73437.57226-1.71875-.80859-3.01562h.81836v-1h-1.08594l-1.44336-5.38867a3 3 0 0 0 1.5293-2.61133 3 3 0 0 0 -2-2.82422v-2.17578zm.46875 7.94922a3 3 0 0 0 .53125.0508 3 3 0 0 0 .5293-.0469l1.35156 5.04688h-3.76563z" fill="url(#f)"/></g><circle cx="400.57144" cy="529.79773" fill="url(#c)" r="1"/></g></svg>