<svg viewBox="0 0 14 14" xmlns="http://www.w3.org/2000/svg"><path d="m11.2 6.4-2.4-.3-.9-.3h-.45l-2.1907875-2.775h.7407937c.2187376 0 .3999938-.04922.3999938-.1125s-.1812562-.1125-.3999938-.1125h-2.1500062v.225h.3v3.075h-.9l-1.2500063-1.5h-.6499875l-.2000062.20001v1.29999h.15v.3h.9v.05l-1.2.15v.8l1.2.15v.05h-.9v.3h-.15v1.29999l.2000062.20001h.6500063l1.2499875-1.5h.9v3.075h-.3v.225h2.1500062c.2187563 0 .3999938-.04922.3999938-.1125 0-.0633-.1812562-.1125-.3999938-.1125h-.7407937l2.1907875-2.775h.45l.9-.3 2.4-.3c1.8-.39999 1.8-.49843 1.8-.6s0-.20001-1.8-.6z"/></svg>