<svg xmlns="http://www.w3.org/2000/svg" xmlns:xlink="http://www.w3.org/1999/xlink" aria-hidden="true" focusable="false" role="img" class="iconify iconify--whh" width="1.01em" height="1em" preserveAspectRatio="xMidYMid meet" viewBox="0 0 1025 1024" style="transform: rotate(360deg);"><path d="M896.428 640h-768q-53 0-90.5-37.5T.428 512t37.5-90.5t90.5-37.5h768q53 0 90.5 37.5t37.5 90.5t-37.5 90.5t-90.5 37.5zm0-384h-768q-53 0-90.5-37.5T.428 128t37.5-90.5t90.5-37.5h768q53 0 90.5 37.5t37.5 90.5t-37.5 90.5t-90.5 37.5zm-768 512h768q53 0 90.5 37.5t37.5 90.5t-37.5 90.5t-90.5 37.5h-768q-53 0-90.5-37.5T.428 896t37.5-90.5t90.5-37.5z" fill="currentColor"></path></svg>